PathFileType	4	(X/Y/Z)	/Users/niels/Desktop/University/Third Semester/Perception and Action/Exam/Gymnastics Motion Tracking/Code for Gym Tracking/Analyzed Data/Backflip/id2_2_pure_Sports2D/id2_2_pure_Sports2D_px_person00.trc
DataRate	CameraRate	NumFrames	NumMarkers	Units	OrigDataRate	OrigDataStartFrame	OrigNumFrames
59.925093632958806	59.925093632958806	8	22	m	59.925093632958806	120	241
Frame#	Time	Hip			RHip			RKnee			RAnkle			RBigToe			RSmallToe			RHeel			LHip			LKnee			LAnkle			LBigToe			LSmallToe			LHeel			Neck			Head			Nose			RShoulder			RElbow			RWrist			LShoulder			LElbow			LWrist		
		X1	Y1	Z1	X2	Y2	Z2	X3	Y3	Z3	X4	Y4	Z4	X5	Y5	Z5	X6	Y6	Z6	X7	Y7	Z7	X8	Y8	Z8	X9	Y9	Z9	X10	Y10	Z10	X11	Y11	Z11	X12	Y12	Z12	X13	Y13	Z13	X14	Y14	Z14	X15	Y15	Z15	X16	Y16	Z16	X17	Y17	Z17	X18	Y18	Z18	X19	Y19	Z19	X20	Y20	Z20	X21	Y21	Z21	X22	Y22	Z22
120	2.0025	1.014340259611523	-0.5395752331327932	0.0	1.0059108768422969	-0.5408635947860031	0.0	1.0057965598446645	-0.6386064310268744	0.0	0.9937632834030371	-0.7289815841360229	0.0	1.025280532447868	-0.7456531254706582	0.0	1.0134341593146812	-0.7463151627246809	0.0	0.9865928641671964	-0.7401659258235844	0.0	1.022140774591523	-0.5425804786580422	0.0	1.0201298868613233	-0.6366662481015848	0.0	1.0029069344380293	-0.7252943360700086	0.0	1.0345877648487194	-0.7396041885811054	0.0	1.0287601201300731	-0.7349490853207824	0.0	0.9944943702612958	-0.7344600709887568	0.0	1.0490951755742286	-0.4067414640142844	0.0	1.0739437722987182	-0.355800075635315	0.0	1.0871568358766888	-0.38946053525648067	0.0	1.0284753789779835	-0.4197585355805892	0.0	0.9846259022503925	-0.4540991682349376	0.0	0.9477360874369714	-0.4842585296135898	0.0	1.0475272563882485	-0.42670585288668894	0.0	1.0161677888286735	-0.4734338041857601	0.0	1.0138546034761906	-0.5085855361444319	0.0
121	2.0191875	1.0125475737741463	-0.5374479722703982	0.0	1.0039634016940406	-0.53830452695099	0.0	1.0051764482805576	-0.6369698510717247	0.0	0.993863414490545	-0.7277462405120168	0.0	1.0250731470789196	-0.7436927009550026	0.0	1.013388723730397	-0.7445815713401297	0.0	0.9867762002604308	-0.7383576461357296	0.0	1.0206364609485472	-0.5401260877286534	0.0	1.0198936547454733	-0.6349214754469764	0.0	1.003076620653555	-0.7239812092434988	0.0	1.0348076868072469	-0.7390716497699024	0.0	1.0288006593054664	-0.7336885581077007	0.0	0.9951776511958286	-0.7328903441300454	0.0	1.0504036261356888	-0.4064143735060507	0.0	1.0773951165044156	-0.35619049196062474	0.0	1.0892191855540831	-0.38979778426364925	0.0	1.0292203225797925	-0.41816531320110717	0.0	0.983137903132357	-0.4474511844529827	0.0	0.9432156584917355	-0.4725350174844794	0.0	1.0486529294154212	-0.42612056396550124	0.0	1.0150476977224585	-0.46927779158096855	0.0	1.0095118125728402	-0.5014772398271804	0.0
122	2.0358750000000003	1.0105107428635447	-0.5353267463821949	0.0	1.0018111939151204	-0.5356677073723414	0.0	1.0045644718752575	-0.635204474473415	0.0	0.9939607424384348	-0.7263491679809698	0.0	1.024877448542377	-0.741750685051642	0.0	1.0132391888119996	-0.7427628486625262	0.0	0.9868940254313181	-0.7365153809353311	0.0	1.0188562391066713	-0.5376118594773	0.0	1.0196690706931515	-0.6330084510597696	0.0	1.0032712615020078	-0.7224434009710883	0.0	1.0350473938745803	-0.7382338211719214	0.0	1.0288017807761793	-0.7321341739781237	0.0	0.9958453742129386	-0.7311812214122869	0.0	1.0516624490185353	-0.4062057458956537	0.0	1.0810927932400087	-0.35675515859923534	0.0	1.0913049872608143	-0.3902897342753513	0.0	1.0300424078971224	-0.41657707720277043	0.0	0.9819469518347064	-0.4408605344383428	0.0	0.9393892007877283	-0.4607584167127977	0.0	1.0497096025228174	-0.42555707809087373	0.0	1.0138376788930872	-0.4648487159178709	0.0	1.0050341272551655	-0.49407666612239304	0.0
123	2.0525625	1.0082502720277855	-0.5332470801766114	0.0	0.9994684757338561	-0.5329928777150479	0.0	1.0039931767446166	-0.6333237232283246	0.0	0.9940567635209009	-0.7248065060104049	0.0	1.0247533181136186	-0.7397467765983132	0.0	1.0130656672316976	-0.7408128055770239	0.0	0.9869392784399675	-0.7346340262970313	0.0	1.016829628135174	-0.5350833697046317	0.0	1.0194809234837081	-0.6309390770005108	0.0	1.0034928952189612	-0.7207064482803929	0.0	1.0352860233118228	-0.7370048759426544	0.0	1.0287848880346397	-0.7302657941830842	0.0	0.9964765935460643	-0.7293312915811572	0.0	1.0528587413959938	-0.40614892535425895	0.0	1.0850005155943143	-0.3575305136232958	0.0	1.093400914604473	-0.39095894313817525	0.0	1.0309469309534274	-0.415056305310209	0.0	0.9810312708426157	-0.4344188327721862	0.0	0.9362243494529222	-0.4490775377814757	0.0	1.0506967929404807	-0.42503750198431955	0.0	1.0125714429518784	-0.4601355244976802	0.0	1.0006816164298047	-0.48631843788762164	0.0
124	2.0692500000000003	1.0057892442162084	-0.5312377575401583	0.0	0.9969529565301215	-0.5303236937228192	0.0	1.0034975285908592	-0.6313397930038053	0.0	0.9941437856563525	-0.7231347729254197	0.0	1.02474168781435	-0.7376122561748748	0.0	1.012930016762732	-0.7386864736403247	0.0	0.9869014000359911	-0.7327040843230217	0.0	1.0145892840453805	-0.5325892701267896	0.0	1.0193530314159231	-0.6287289516356693	0.0	1.003739371853289	-0.7188000095001464	0.0	1.0355050120327305	-0.7353414382128044	0.0	1.0287717922880668	-0.728126184421081	0.0	0.9970490063884249	-0.7273452571953293	0.0	1.053988737715434	-0.40627323260693265	0.0	1.0890517524739634	-0.35855181333745345	0.0	1.0954937748791904	-0.3918267055209293	0.0	1.0319419674931969	-0.4136695417984051	0.0	0.9803728177288679	-0.4282068417893834	0.0	0.9336742590720368	-0.43763527241160266	0.0	1.0516183028386636	-0.4245891383489846	0.0	1.01130889683265	-0.4551800841195525	0.0	0.9966518560971239	-0.47823040742757855	0.0
125	2.0859375	1.0031507972715086	-0.5293264201180378	0.0	0.9942866655259317	-0.5277106644403007	0.0	1.003113117368297	-0.6292649350691524	0.0	0.9942113793774344	-0.7213483484310026	0.0	1.024860887907566	-0.7353160631163712	0.0	1.012871925646628	-0.7363666401952527	0.0	0.9867737513984574	-0.7307136267999417	0.0	1.0121677129121665	-0.5301830519635572	0.0	1.0193076273202308	-0.6263987208102035	0.0	1.004002629562114	-0.7167543349004494	0.0	1.0356853477822079	-0.733261966397612	0.0	1.0287816078837317	-0.7257932546742183	0.0	0.9975367165567263	-0.7252373661549668	0.0	1.0550553768579582	-0.4066065520762912	0.0	1.0931568941472736	-0.3598527366025416	0.0	1.0975682754417473	-0.39291414520201023	0.0	1.033032090591164	-0.41248236406059746	0.0	0.9799520096679114	-0.42230224141730915	0.0	0.9316743474694376	-0.4265772290617774	0.0	1.0524800443560056	-0.42424850853548235	0.0	1.0101092605699693	-0.4500926762532508	0.0	0.9930174615964847	-0.469921641138575	0.0
126	2.102625	1.000356543920744	-0.527540145035171	0.0	0.9914974904773657	-0.5252099615270537	0.0	1.0028725127571496	-0.6271111120718774	0.0	0.9942520753204264	-0.7194578311291738	0.0	1.0251029266896579	-0.7328782884260334	0.0	1.0129105875456508	-0.7338818073246725	0.0	0.9865590997695698	-0.7286519190705101	0.0	1.0095942805410554	-0.5279197727698295	0.0	1.019364251621943	-0.6239728537711059	0.0	1.0042680372725672	-0.7145964887991875	0.0	1.0358064719999758	-0.7308466153782494	0.0	1.0288238808261547	-0.7233384047864011	0.0	0.9979121960971318	-0.7230282971885906	0.0	1.0560641080198183	-0.4071758026273889	0.0	1.0972195896397612	-0.3614644986724983	0.0	1.099605801518975	-0.3942402745254313	0.0	1.0342125909010156	-0.41155596223246493	0.0	0.9797413552807546	-0.4167890695213146	0.0	0.9301458611875735	-0.4160589764112086	0.0	1.053286677126186	-0.4240584307087995	0.0	1.0090079566334644	-0.44505067771685425	0.0	0.9897324532937	-0.4615867626734595	0.0
127	2.1193125	0.9974265514320614	-0.5259010097117569	0.0	0.9886171036737417	-0.5228765622388355	0.0	1.0028025439741413	-0.624887087667363	0.0	0.9942623414207435	-0.7174696236128232	0.0	1.0254357525954056	-0.7303493926424147	0.0	1.0130490606162899	-0.7312891987932144	0.0	0.9862681464676493	-0.726510414631937	0.0	1.0068953031220684	-0.5258478662141266	0.0	1.0195393023437676	-0.6214759197946199	0.0	1.004517472694997	-0.7123473854344855	0.0	1.0358474567732847	-0.7282027047992163	0.0	1.0288944128342477	-0.7208161654254159	0.0	0.9981522962826878	-0.7207378909965405	0.0	1.057017628240575	-0.4080054803510685	0.0	1.1011532021700516	-0.3634117565673012	0.0	1.1015844017171519	-0.3958188096245231	0.0	1.035466852851721	-0.41094719788315714	0.0	0.9797034521871351	-0.4117602064196416	0.0	0.9290035618886993	-0.40624691810746244	0.0	1.0540389542545163	-0.42406110713871814	0.0	1.0080081514368207	-0.44026815649490747	0.0	0.9866763974466731	-0.4535045255796796	0.0
